<mxfile host="Electron" modified="2023-10-30T12:29:22.100Z" agent="Mozilla/5.0 (Windows NT 10.0; Win64; x64) AppleWebKit/537.36 (KHTML, like Gecko) draw.io/21.7.5 Chrome/114.0.5735.289 Electron/25.8.1 Safari/537.36" etag="Tk9zlzJ1qFw2VOLRp3yT" version="21.7.5" type="device">
  <diagram id="C5RBs43oDa-KdzZeNtuy" name="Page-1">
    <mxGraphModel dx="2160" dy="1240" grid="0" gridSize="10" guides="1" tooltips="1" connect="1" arrows="1" fold="1" page="1" pageScale="1" pageWidth="827" pageHeight="1169" math="0" shadow="0">
      <root>
        <mxCell id="WIyWlLk6GJQsqaUBKTNV-0" />
        <mxCell id="WIyWlLk6GJQsqaUBKTNV-1" parent="WIyWlLk6GJQsqaUBKTNV-0" />
        <mxCell id="Euxpj8CKh7b6bBOlHINX-20" style="edgeStyle=orthogonalEdgeStyle;rounded=0;orthogonalLoop=1;jettySize=auto;html=1;entryX=0.536;entryY=1.013;entryDx=0;entryDy=0;entryPerimeter=0;endArrow=block;endFill=0;dashed=1;strokeColor=#464F55;endSize=10;startSize=10;" parent="WIyWlLk6GJQsqaUBKTNV-1" source="iOeyGtEsCra8uKwSyC5N-0" target="Euxpj8CKh7b6bBOlHINX-19" edge="1">
          <mxGeometry relative="1" as="geometry">
            <mxPoint x="545.8571428571429" y="234.8571428571429" as="targetPoint" />
            <Array as="points">
              <mxPoint x="605" y="256" />
              <mxPoint x="547" y="256" />
            </Array>
          </mxGeometry>
        </mxCell>
        <mxCell id="ITooB4OtBBQmgaeU0dyb-6" style="edgeStyle=orthogonalEdgeStyle;rounded=0;orthogonalLoop=1;jettySize=auto;html=1;endArrow=none;endFill=0;strokeColor=#464F55;startArrow=diamond;startFill=0;endSize=10;startSize=10;" edge="1" parent="WIyWlLk6GJQsqaUBKTNV-1" source="iOeyGtEsCra8uKwSyC5N-0">
          <mxGeometry relative="1" as="geometry">
            <mxPoint x="706" y="170" as="targetPoint" />
            <Array as="points">
              <mxPoint x="706" y="171" />
            </Array>
          </mxGeometry>
        </mxCell>
        <mxCell id="iOeyGtEsCra8uKwSyC5N-0" value="&lt;br&gt;Group" style="swimlane;fontStyle=1;align=center;verticalAlign=top;childLayout=stackLayout;horizontal=1;startSize=40;horizontalStack=0;resizeParent=1;resizeParentMax=0;resizeLast=0;collapsible=1;marginBottom=0;whiteSpace=wrap;html=1;strokeColor=#464F55;fontColor=#FFFFFF;fillColor=#2C6879;rounded=1;labelBackgroundColor=none;" parent="WIyWlLk6GJQsqaUBKTNV-1" vertex="1">
          <mxGeometry x="536" y="275" width="200" height="411" as="geometry">
            <mxRectangle x="299" y="276" width="120" height="40" as="alternateBounds" />
          </mxGeometry>
        </mxCell>
        <mxCell id="iOeyGtEsCra8uKwSyC5N-1" value="&lt;br&gt;+ elements: List[ComponentAbc]&lt;br&gt;+ transformer: TransformerAbc" style="text;strokeColor=none;fillColor=none;align=left;verticalAlign=top;spacingLeft=4;spacingRight=4;overflow=hidden;rotatable=0;points=[[0,0.5],[1,0.5]];portConstraint=eastwest;whiteSpace=wrap;html=1;fontColor=#464F55;rounded=1;labelBackgroundColor=none;" parent="iOeyGtEsCra8uKwSyC5N-0" vertex="1">
          <mxGeometry y="40" width="200" height="132" as="geometry" />
        </mxCell>
        <mxCell id="iOeyGtEsCra8uKwSyC5N-2" value="" style="line;strokeWidth=1;fillColor=none;align=left;verticalAlign=middle;spacingTop=-1;spacingLeft=3;spacingRight=3;rotatable=0;labelPosition=right;points=[];portConstraint=eastwest;strokeColor=#464F55;fontColor=#1A1A1A;rounded=1;labelBackgroundColor=none;" parent="iOeyGtEsCra8uKwSyC5N-0" vertex="1">
          <mxGeometry y="172" width="200" height="8" as="geometry" />
        </mxCell>
        <mxCell id="iOeyGtEsCra8uKwSyC5N-3" value="+ move()&lt;br&gt;+ rotate()&lt;br&gt;+ mirror()&lt;br&gt;+ scale()&lt;br&gt;&lt;br&gt;+ fill()&lt;br&gt;&lt;br&gt;+&amp;nbsp;set_transformer(transformer)&lt;br&gt;&lt;br&gt;+ add(c: ComponentAbc)&lt;br style=&quot;border-color: var(--border-color);&quot;&gt;+ remove(c: ComponentAbc)&lt;br style=&quot;border-color: var(--border-color);&quot;&gt;&lt;br&gt;+ union(other: ComponentAbc)&lt;br&gt;+ difference(other:ComponentAbc)&lt;br&gt;+ split(other: ComponentAbc)" style="text;strokeColor=none;fillColor=none;align=left;verticalAlign=top;spacingLeft=4;spacingRight=4;overflow=hidden;rotatable=0;points=[[0,0.5],[1,0.5]];portConstraint=eastwest;whiteSpace=wrap;html=1;fontColor=#464F55;rounded=1;labelBackgroundColor=none;" parent="iOeyGtEsCra8uKwSyC5N-0" vertex="1">
          <mxGeometry y="180" width="200" height="231" as="geometry" />
        </mxCell>
        <mxCell id="Euxpj8CKh7b6bBOlHINX-21" style="edgeStyle=orthogonalEdgeStyle;rounded=0;orthogonalLoop=1;jettySize=auto;html=1;entryX=0.263;entryY=1.008;entryDx=0;entryDy=0;entryPerimeter=0;endArrow=block;endFill=0;dashed=1;strokeColor=#464F55;endSize=10;startSize=10;" parent="WIyWlLk6GJQsqaUBKTNV-1" source="Euxpj8CKh7b6bBOlHINX-11" target="Euxpj8CKh7b6bBOlHINX-19" edge="1">
          <mxGeometry relative="1" as="geometry">
            <mxPoint x="473" y="237.71428571428578" as="targetPoint" />
          </mxGeometry>
        </mxCell>
        <mxCell id="Euxpj8CKh7b6bBOlHINX-11" value="&lt;br&gt;Element" style="swimlane;fontStyle=1;align=center;verticalAlign=top;childLayout=stackLayout;horizontal=1;startSize=40;horizontalStack=0;resizeParent=1;resizeParentMax=0;resizeLast=0;collapsible=1;marginBottom=0;whiteSpace=wrap;html=1;strokeColor=#464F55;fontColor=#FFFFFF;fillColor=#2C6879;rounded=1;labelBackgroundColor=none;" parent="WIyWlLk6GJQsqaUBKTNV-1" vertex="1">
          <mxGeometry x="322" y="275" width="178" height="310" as="geometry">
            <mxRectangle x="299" y="276" width="120" height="40" as="alternateBounds" />
          </mxGeometry>
        </mxCell>
        <mxCell id="Euxpj8CKh7b6bBOlHINX-12" value="+ x: int&lt;br&gt;+ y: int&lt;br&gt;+ name: str&lt;br&gt;+ symbol: str&lt;br&gt;+ symbol_color: str&lt;br&gt;+ background_color: str&lt;br&gt;+ transformer: TransformerAbc" style="text;strokeColor=none;fillColor=none;align=left;verticalAlign=top;spacingLeft=4;spacingRight=4;overflow=hidden;rotatable=0;points=[[0,0.5],[1,0.5]];portConstraint=eastwest;whiteSpace=wrap;html=1;fontColor=#464F55;rounded=1;labelBackgroundColor=none;" parent="Euxpj8CKh7b6bBOlHINX-11" vertex="1">
          <mxGeometry y="40" width="178" height="131" as="geometry" />
        </mxCell>
        <mxCell id="Euxpj8CKh7b6bBOlHINX-13" value="" style="line;strokeWidth=1;fillColor=none;align=left;verticalAlign=middle;spacingTop=-1;spacingLeft=3;spacingRight=3;rotatable=0;labelPosition=right;points=[];portConstraint=eastwest;strokeColor=#464F55;fontColor=#1A1A1A;rounded=1;labelBackgroundColor=none;" parent="Euxpj8CKh7b6bBOlHINX-11" vertex="1">
          <mxGeometry y="171" width="178" height="8" as="geometry" />
        </mxCell>
        <mxCell id="Euxpj8CKh7b6bBOlHINX-14" value="+ move()&lt;br&gt;+ rotate()&lt;br style=&quot;border-color: var(--border-color);&quot;&gt;+ mirror()&lt;br style=&quot;border-color: var(--border-color);&quot;&gt;+ scale()&lt;br&gt;&lt;br style=&quot;border-color: var(--border-color);&quot;&gt;+ fill()&lt;br&gt;&lt;br&gt;+&amp;nbsp;set_transformer(transformer)" style="text;strokeColor=none;fillColor=none;align=left;verticalAlign=top;spacingLeft=4;spacingRight=4;overflow=hidden;rotatable=0;points=[[0,0.5],[1,0.5]];portConstraint=eastwest;whiteSpace=wrap;html=1;fontColor=#464F55;rounded=1;labelBackgroundColor=none;" parent="Euxpj8CKh7b6bBOlHINX-11" vertex="1">
          <mxGeometry y="179" width="178" height="131" as="geometry" />
        </mxCell>
        <mxCell id="Euxpj8CKh7b6bBOlHINX-16" value="&lt;i&gt;&amp;lt;&amp;lt; abstract &amp;gt;&amp;gt;&lt;br style=&quot;border-color: var(--border-color);&quot;&gt;ComponentAbc&lt;/i&gt;" style="swimlane;fontStyle=1;align=center;verticalAlign=top;childLayout=stackLayout;horizontal=1;startSize=40;horizontalStack=0;resizeParent=1;resizeParentMax=0;resizeLast=0;collapsible=1;marginBottom=0;whiteSpace=wrap;html=1;strokeColor=#464F55;fontColor=#FFFFFF;fillColor=#2C6879;rounded=1;labelBackgroundColor=none;" parent="WIyWlLk6GJQsqaUBKTNV-1" vertex="1">
          <mxGeometry x="430" y="41" width="218" height="192" as="geometry">
            <mxRectangle x="299" y="276" width="120" height="40" as="alternateBounds" />
          </mxGeometry>
        </mxCell>
        <mxCell id="Euxpj8CKh7b6bBOlHINX-17" value="&amp;nbsp;" style="text;strokeColor=none;fillColor=none;align=left;verticalAlign=top;spacingLeft=4;spacingRight=4;overflow=hidden;rotatable=0;points=[[0,0.5],[1,0.5]];portConstraint=eastwest;whiteSpace=wrap;html=1;fontColor=#464F55;rounded=1;labelBackgroundColor=none;" parent="Euxpj8CKh7b6bBOlHINX-16" vertex="1">
          <mxGeometry y="40" width="218" height="19" as="geometry" />
        </mxCell>
        <mxCell id="Euxpj8CKh7b6bBOlHINX-18" value="" style="line;strokeWidth=1;fillColor=none;align=left;verticalAlign=middle;spacingTop=-1;spacingLeft=3;spacingRight=3;rotatable=0;labelPosition=right;points=[];portConstraint=eastwest;strokeColor=#464F55;fontColor=#1A1A1A;rounded=1;labelBackgroundColor=none;" parent="Euxpj8CKh7b6bBOlHINX-16" vertex="1">
          <mxGeometry y="59" width="218" height="8" as="geometry" />
        </mxCell>
        <mxCell id="Euxpj8CKh7b6bBOlHINX-19" value="+ move()&lt;br&gt;+ rotate()&lt;br style=&quot;border-color: var(--border-color);&quot;&gt;+ mirror()&lt;br style=&quot;border-color: var(--border-color);&quot;&gt;+ scale()&lt;br&gt;&lt;br style=&quot;border-color: var(--border-color);&quot;&gt;+ fill()&lt;br&gt;&lt;br&gt;+&amp;nbsp;set_transformer(transformer)" style="text;strokeColor=none;fillColor=none;align=left;verticalAlign=top;spacingLeft=4;spacingRight=4;overflow=hidden;rotatable=0;points=[[0,0.5],[1,0.5]];portConstraint=eastwest;whiteSpace=wrap;html=1;fontColor=#464F55;rounded=1;labelBackgroundColor=none;" parent="Euxpj8CKh7b6bBOlHINX-16" vertex="1">
          <mxGeometry y="67" width="218" height="125" as="geometry" />
        </mxCell>
        <mxCell id="Euxpj8CKh7b6bBOlHINX-22" style="edgeStyle=orthogonalEdgeStyle;rounded=0;orthogonalLoop=1;jettySize=auto;html=1;endArrow=diamond;endFill=0;startSize=10;endSize=10;startArrow=open;startFill=0;strokeColor=#464F55;entryX=0.537;entryY=0.003;entryDx=0;entryDy=0;entryPerimeter=0;" parent="WIyWlLk6GJQsqaUBKTNV-1" source="Euxpj8CKh7b6bBOlHINX-19" target="ITooB4OtBBQmgaeU0dyb-0" edge="1">
          <mxGeometry relative="1" as="geometry">
            <mxPoint x="983" y="274" as="targetPoint" />
          </mxGeometry>
        </mxCell>
        <mxCell id="MPaX69bTN01wMX4TqnMa-13" value="&lt;i&gt;&amp;lt;&amp;lt; abstract &amp;gt;&amp;gt;&lt;br style=&quot;border-color: var(--border-color);&quot;&gt;TransformertAbc&lt;/i&gt;" style="swimlane;fontStyle=1;align=center;verticalAlign=top;childLayout=stackLayout;horizontal=1;startSize=40;horizontalStack=0;resizeParent=1;resizeParentMax=0;resizeLast=0;collapsible=1;marginBottom=0;whiteSpace=wrap;html=1;strokeColor=#464F55;fontColor=#FFFFFF;fillColor=#2C6879;rounded=1;labelBackgroundColor=none;" parent="WIyWlLk6GJQsqaUBKTNV-1" vertex="1">
          <mxGeometry x="60.93" y="59" width="191" height="156" as="geometry">
            <mxRectangle x="299" y="276" width="120" height="40" as="alternateBounds" />
          </mxGeometry>
        </mxCell>
        <mxCell id="MPaX69bTN01wMX4TqnMa-14" value="&amp;nbsp;" style="text;strokeColor=none;fillColor=none;align=left;verticalAlign=top;spacingLeft=4;spacingRight=4;overflow=hidden;rotatable=0;points=[[0,0.5],[1,0.5]];portConstraint=eastwest;whiteSpace=wrap;html=1;fontColor=#464F55;rounded=1;labelBackgroundColor=none;" parent="MPaX69bTN01wMX4TqnMa-13" vertex="1">
          <mxGeometry y="40" width="191" height="19" as="geometry" />
        </mxCell>
        <mxCell id="MPaX69bTN01wMX4TqnMa-15" value="" style="line;strokeWidth=1;fillColor=none;align=left;verticalAlign=middle;spacingTop=-1;spacingLeft=3;spacingRight=3;rotatable=0;labelPosition=right;points=[];portConstraint=eastwest;strokeColor=#464F55;fontColor=#1A1A1A;rounded=1;labelBackgroundColor=none;" parent="MPaX69bTN01wMX4TqnMa-13" vertex="1">
          <mxGeometry y="59" width="191" height="8" as="geometry" />
        </mxCell>
        <mxCell id="MPaX69bTN01wMX4TqnMa-16" value="+ move()&lt;br style=&quot;border-color: var(--border-color);&quot;&gt;+ rotate()&lt;br style=&quot;border-color: var(--border-color);&quot;&gt;+ mirror()&lt;br style=&quot;border-color: var(--border-color);&quot;&gt;+ scale()&lt;br style=&quot;border-color: var(--border-color);&quot;&gt;" style="text;strokeColor=none;fillColor=none;align=left;verticalAlign=top;spacingLeft=4;spacingRight=4;overflow=hidden;rotatable=0;points=[[0,0.5],[1,0.5]];portConstraint=eastwest;whiteSpace=wrap;html=1;fontColor=#464F55;rounded=1;labelBackgroundColor=none;" parent="MPaX69bTN01wMX4TqnMa-13" vertex="1">
          <mxGeometry y="67" width="191" height="89" as="geometry" />
        </mxCell>
        <mxCell id="MPaX69bTN01wMX4TqnMa-17" value="&lt;br&gt;CartesianTransformer" style="swimlane;fontStyle=1;align=center;verticalAlign=top;childLayout=stackLayout;horizontal=1;startSize=40;horizontalStack=0;resizeParent=1;resizeParentMax=0;resizeLast=0;collapsible=1;marginBottom=0;whiteSpace=wrap;html=1;strokeColor=#464F55;fontColor=#FFFFFF;fillColor=#2C6879;rounded=1;labelBackgroundColor=none;" parent="WIyWlLk6GJQsqaUBKTNV-1" vertex="1">
          <mxGeometry x="60.93" y="308" width="191" height="152" as="geometry">
            <mxRectangle x="299" y="276" width="120" height="40" as="alternateBounds" />
          </mxGeometry>
        </mxCell>
        <mxCell id="MPaX69bTN01wMX4TqnMa-18" value="&amp;nbsp;" style="text;strokeColor=none;fillColor=none;align=left;verticalAlign=top;spacingLeft=4;spacingRight=4;overflow=hidden;rotatable=0;points=[[0,0.5],[1,0.5]];portConstraint=eastwest;whiteSpace=wrap;html=1;fontColor=#464F55;rounded=1;labelBackgroundColor=none;" parent="MPaX69bTN01wMX4TqnMa-17" vertex="1">
          <mxGeometry y="40" width="191" height="19" as="geometry" />
        </mxCell>
        <mxCell id="MPaX69bTN01wMX4TqnMa-19" value="" style="line;strokeWidth=1;fillColor=none;align=left;verticalAlign=middle;spacingTop=-1;spacingLeft=3;spacingRight=3;rotatable=0;labelPosition=right;points=[];portConstraint=eastwest;strokeColor=#464F55;fontColor=#1A1A1A;rounded=1;labelBackgroundColor=none;" parent="MPaX69bTN01wMX4TqnMa-17" vertex="1">
          <mxGeometry y="59" width="191" height="8" as="geometry" />
        </mxCell>
        <mxCell id="OBRnAMiXmDm1whHQWvlM-1" style="edgeStyle=orthogonalEdgeStyle;rounded=0;orthogonalLoop=1;jettySize=auto;html=1;endArrow=none;endFill=0;dashed=1;strokeColor=#464F55;" parent="MPaX69bTN01wMX4TqnMa-17" source="MPaX69bTN01wMX4TqnMa-20" edge="1">
          <mxGeometry relative="1" as="geometry">
            <mxPoint x="-41.78714285714289" y="109.5" as="targetPoint" />
          </mxGeometry>
        </mxCell>
        <mxCell id="MPaX69bTN01wMX4TqnMa-20" value="+ move()&lt;br style=&quot;border-color: var(--border-color);&quot;&gt;+ rotate()&lt;br style=&quot;border-color: var(--border-color);&quot;&gt;+ mirror()&lt;br style=&quot;border-color: var(--border-color);&quot;&gt;+ scale()&lt;br style=&quot;border-color: var(--border-color);&quot;&gt;" style="text;strokeColor=none;fillColor=none;align=left;verticalAlign=top;spacingLeft=4;spacingRight=4;overflow=hidden;rotatable=0;points=[[0,0.5],[1,0.5]];portConstraint=eastwest;whiteSpace=wrap;html=1;fontColor=#464F55;rounded=1;labelBackgroundColor=none;" parent="MPaX69bTN01wMX4TqnMa-17" vertex="1">
          <mxGeometry y="67" width="191" height="85" as="geometry" />
        </mxCell>
        <mxCell id="MPaX69bTN01wMX4TqnMa-22" style="edgeStyle=orthogonalEdgeStyle;rounded=0;orthogonalLoop=1;jettySize=auto;html=1;endArrow=open;endFill=0;startArrow=diamond;startFill=0;startSize=10;strokeColor=#464F55;entryX=1;entryY=0.612;entryDx=0;entryDy=0;entryPerimeter=0;endSize=10;" parent="WIyWlLk6GJQsqaUBKTNV-1" source="Euxpj8CKh7b6bBOlHINX-12" target="MPaX69bTN01wMX4TqnMa-15" edge="1">
          <mxGeometry relative="1" as="geometry" />
        </mxCell>
        <mxCell id="MPaX69bTN01wMX4TqnMa-23" value="&lt;br&gt;PolarTransformer" style="swimlane;fontStyle=1;align=center;verticalAlign=top;childLayout=stackLayout;horizontal=1;startSize=40;horizontalStack=0;resizeParent=1;resizeParentMax=0;resizeLast=0;collapsible=1;marginBottom=0;whiteSpace=wrap;html=1;strokeColor=#464F55;fontColor=#FFFFFF;fillColor=#2C6879;rounded=1;labelBackgroundColor=none;" parent="WIyWlLk6GJQsqaUBKTNV-1" vertex="1">
          <mxGeometry x="60.93" y="485" width="191" height="157" as="geometry">
            <mxRectangle x="299" y="276" width="120" height="40" as="alternateBounds" />
          </mxGeometry>
        </mxCell>
        <mxCell id="MPaX69bTN01wMX4TqnMa-24" value="&amp;nbsp;" style="text;strokeColor=none;fillColor=none;align=left;verticalAlign=top;spacingLeft=4;spacingRight=4;overflow=hidden;rotatable=0;points=[[0,0.5],[1,0.5]];portConstraint=eastwest;whiteSpace=wrap;html=1;fontColor=#464F55;rounded=1;labelBackgroundColor=none;" parent="MPaX69bTN01wMX4TqnMa-23" vertex="1">
          <mxGeometry y="40" width="191" height="19" as="geometry" />
        </mxCell>
        <mxCell id="MPaX69bTN01wMX4TqnMa-25" value="" style="line;strokeWidth=1;fillColor=none;align=left;verticalAlign=middle;spacingTop=-1;spacingLeft=3;spacingRight=3;rotatable=0;labelPosition=right;points=[];portConstraint=eastwest;strokeColor=#464F55;fontColor=#1A1A1A;rounded=1;labelBackgroundColor=none;" parent="MPaX69bTN01wMX4TqnMa-23" vertex="1">
          <mxGeometry y="59" width="191" height="8" as="geometry" />
        </mxCell>
        <mxCell id="MPaX69bTN01wMX4TqnMa-26" value="+ move()&lt;br style=&quot;border-color: var(--border-color);&quot;&gt;+ rotate()&lt;br style=&quot;border-color: var(--border-color);&quot;&gt;+ mirror()&lt;br style=&quot;border-color: var(--border-color);&quot;&gt;+ scale()" style="text;strokeColor=none;fillColor=none;align=left;verticalAlign=top;spacingLeft=4;spacingRight=4;overflow=hidden;rotatable=0;points=[[0,0.5],[1,0.5]];portConstraint=eastwest;whiteSpace=wrap;html=1;fontColor=#464F55;rounded=1;labelBackgroundColor=none;" parent="MPaX69bTN01wMX4TqnMa-23" vertex="1">
          <mxGeometry y="67" width="191" height="90" as="geometry" />
        </mxCell>
        <mxCell id="OBRnAMiXmDm1whHQWvlM-0" style="edgeStyle=orthogonalEdgeStyle;rounded=0;orthogonalLoop=1;jettySize=auto;html=1;entryX=-0.005;entryY=0.258;entryDx=0;entryDy=0;entryPerimeter=0;endArrow=block;endFill=0;strokeColor=#464F55;dashed=1;endSize=10;startSize=10;" parent="WIyWlLk6GJQsqaUBKTNV-1" source="MPaX69bTN01wMX4TqnMa-26" target="MPaX69bTN01wMX4TqnMa-16" edge="1">
          <mxGeometry relative="1" as="geometry">
            <Array as="points">
              <mxPoint x="20" y="597" />
              <mxPoint x="20" y="149" />
            </Array>
          </mxGeometry>
        </mxCell>
        <mxCell id="ITooB4OtBBQmgaeU0dyb-0" value="&lt;br&gt;Canvas" style="swimlane;fontStyle=1;align=center;verticalAlign=top;childLayout=stackLayout;horizontal=1;startSize=40;horizontalStack=0;resizeParent=1;resizeParentMax=0;resizeLast=0;collapsible=1;marginBottom=0;whiteSpace=wrap;html=1;strokeColor=#464F55;fontColor=#FFFFFF;fillColor=#2C6879;rounded=1;labelBackgroundColor=none;" vertex="1" parent="WIyWlLk6GJQsqaUBKTNV-1">
          <mxGeometry x="782" y="275" width="206" height="460" as="geometry">
            <mxRectangle x="299" y="276" width="120" height="40" as="alternateBounds" />
          </mxGeometry>
        </mxCell>
        <mxCell id="ITooB4OtBBQmgaeU0dyb-1" value="&lt;br&gt;+ elements: List[ComponentAbc]&lt;br&gt;+ transformer: TransformerAbc" style="text;strokeColor=none;fillColor=none;align=left;verticalAlign=top;spacingLeft=4;spacingRight=4;overflow=hidden;rotatable=0;points=[[0,0.5],[1,0.5]];portConstraint=eastwest;whiteSpace=wrap;html=1;fontColor=#464F55;rounded=1;labelBackgroundColor=none;" vertex="1" parent="ITooB4OtBBQmgaeU0dyb-0">
          <mxGeometry y="40" width="206" height="132" as="geometry" />
        </mxCell>
        <mxCell id="ITooB4OtBBQmgaeU0dyb-2" value="" style="line;strokeWidth=1;fillColor=none;align=left;verticalAlign=middle;spacingTop=-1;spacingLeft=3;spacingRight=3;rotatable=0;labelPosition=right;points=[];portConstraint=eastwest;strokeColor=#464F55;fontColor=#1A1A1A;rounded=1;labelBackgroundColor=none;" vertex="1" parent="ITooB4OtBBQmgaeU0dyb-0">
          <mxGeometry y="172" width="206" height="8" as="geometry" />
        </mxCell>
        <mxCell id="ITooB4OtBBQmgaeU0dyb-3" value="+ move()&lt;br&gt;+ rotate()&lt;br&gt;+ mirror()&lt;br&gt;+ scale()&lt;br&gt;&lt;br&gt;+ fill()&lt;br&gt;&lt;br&gt;+&amp;nbsp;set_transformer(transformer)&lt;br&gt;&lt;br&gt;+ add(c: ComponentAbc)&lt;br style=&quot;border-color: var(--border-color);&quot;&gt;+ remove(c: ComponentAbc)&lt;br style=&quot;border-color: var(--border-color);&quot;&gt;&lt;br&gt;+ union(other: ComponentAbc)&lt;br&gt;+ difference(other:ComponentAbc)&lt;br&gt;+ split(other: ComponentAbc)&lt;br&gt;&lt;br&gt;+ create_memento&lt;br style=&quot;border-color: var(--border-color);&quot;&gt;+ restore_from_memento" style="text;strokeColor=none;fillColor=none;align=left;verticalAlign=top;spacingLeft=4;spacingRight=4;overflow=hidden;rotatable=0;points=[[0,0.5],[1,0.5]];portConstraint=eastwest;whiteSpace=wrap;html=1;fontColor=#464F55;rounded=1;labelBackgroundColor=none;" vertex="1" parent="ITooB4OtBBQmgaeU0dyb-0">
          <mxGeometry y="180" width="206" height="280" as="geometry" />
        </mxCell>
        <mxCell id="ITooB4OtBBQmgaeU0dyb-4" style="edgeStyle=orthogonalEdgeStyle;rounded=0;orthogonalLoop=1;jettySize=auto;html=1;endArrow=block;endFill=0;strokeColor=#464F55;endSize=10;startSize=10;" edge="1" parent="WIyWlLk6GJQsqaUBKTNV-1" source="ITooB4OtBBQmgaeU0dyb-1" target="iOeyGtEsCra8uKwSyC5N-1">
          <mxGeometry relative="1" as="geometry" />
        </mxCell>
        <mxCell id="ITooB4OtBBQmgaeU0dyb-17" style="edgeStyle=orthogonalEdgeStyle;rounded=0;orthogonalLoop=1;jettySize=auto;html=1;entryX=0.5;entryY=1.015;entryDx=0;entryDy=0;entryPerimeter=0;endArrow=diamond;endFill=0;startArrow=open;startFill=0;endSize=10;startSize=10;strokeColor=#464F55;" edge="1" parent="WIyWlLk6GJQsqaUBKTNV-1" source="ITooB4OtBBQmgaeU0dyb-7" target="ITooB4OtBBQmgaeU0dyb-15">
          <mxGeometry relative="1" as="geometry" />
        </mxCell>
        <mxCell id="ITooB4OtBBQmgaeU0dyb-7" value="&lt;br&gt;History" style="swimlane;fontStyle=1;align=center;verticalAlign=top;childLayout=stackLayout;horizontal=1;startSize=40;horizontalStack=0;resizeParent=1;resizeParentMax=0;resizeLast=0;collapsible=1;marginBottom=0;whiteSpace=wrap;html=1;strokeColor=#464F55;fontColor=#FFFFFF;fillColor=#2C6879;rounded=1;labelBackgroundColor=none;" vertex="1" parent="WIyWlLk6GJQsqaUBKTNV-1">
          <mxGeometry x="1045" y="565" width="220" height="170" as="geometry">
            <mxRectangle x="299" y="276" width="120" height="40" as="alternateBounds" />
          </mxGeometry>
        </mxCell>
        <mxCell id="ITooB4OtBBQmgaeU0dyb-9" value="+ states_past: List[CanvasMemento]&lt;br&gt;+ state_current: List[CanvasMemento]&lt;br&gt;+ states_future: List[CanvasMemento]" style="text;strokeColor=none;fillColor=none;align=left;verticalAlign=top;spacingLeft=4;spacingRight=4;overflow=hidden;rotatable=0;points=[[0,0.5],[1,0.5]];portConstraint=eastwest;whiteSpace=wrap;html=1;fontColor=#464F55;rounded=1;labelBackgroundColor=none;" vertex="1" parent="ITooB4OtBBQmgaeU0dyb-7">
          <mxGeometry y="40" width="220" height="60" as="geometry" />
        </mxCell>
        <mxCell id="ITooB4OtBBQmgaeU0dyb-10" value="" style="line;strokeWidth=1;fillColor=none;align=left;verticalAlign=middle;spacingTop=-1;spacingLeft=3;spacingRight=3;rotatable=0;labelPosition=right;points=[];portConstraint=eastwest;strokeColor=#464F55;fontColor=#1A1A1A;rounded=1;labelBackgroundColor=none;" vertex="1" parent="ITooB4OtBBQmgaeU0dyb-7">
          <mxGeometry y="100" width="220" height="8" as="geometry" />
        </mxCell>
        <mxCell id="ITooB4OtBBQmgaeU0dyb-11" value="+ save_state()&lt;br&gt;+ get_state_past()&lt;br&gt;+ get_state_future()&amp;nbsp;" style="text;strokeColor=none;fillColor=none;align=left;verticalAlign=top;spacingLeft=4;spacingRight=4;overflow=hidden;rotatable=0;points=[[0,0.5],[1,0.5]];portConstraint=eastwest;whiteSpace=wrap;html=1;fontColor=#464F55;rounded=1;labelBackgroundColor=none;" vertex="1" parent="ITooB4OtBBQmgaeU0dyb-7">
          <mxGeometry y="108" width="220" height="62" as="geometry" />
        </mxCell>
        <mxCell id="ITooB4OtBBQmgaeU0dyb-12" value="&lt;br&gt;CanvasMemento" style="swimlane;fontStyle=1;align=center;verticalAlign=top;childLayout=stackLayout;horizontal=1;startSize=40;horizontalStack=0;resizeParent=1;resizeParentMax=0;resizeLast=0;collapsible=1;marginBottom=0;whiteSpace=wrap;html=1;strokeColor=#464F55;fontColor=#FFFFFF;fillColor=#2C6879;rounded=1;labelBackgroundColor=none;" vertex="1" parent="WIyWlLk6GJQsqaUBKTNV-1">
          <mxGeometry x="1045" y="275" width="220" height="170" as="geometry">
            <mxRectangle x="299" y="276" width="120" height="40" as="alternateBounds" />
          </mxGeometry>
        </mxCell>
        <mxCell id="ITooB4OtBBQmgaeU0dyb-13" value="+ content: List[ComponentAbc]" style="text;strokeColor=none;fillColor=none;align=left;verticalAlign=top;spacingLeft=4;spacingRight=4;overflow=hidden;rotatable=0;points=[[0,0.5],[1,0.5]];portConstraint=eastwest;whiteSpace=wrap;html=1;fontColor=#464F55;rounded=1;labelBackgroundColor=none;" vertex="1" parent="ITooB4OtBBQmgaeU0dyb-12">
          <mxGeometry y="40" width="220" height="60" as="geometry" />
        </mxCell>
        <mxCell id="ITooB4OtBBQmgaeU0dyb-14" value="" style="line;strokeWidth=1;fillColor=none;align=left;verticalAlign=middle;spacingTop=-1;spacingLeft=3;spacingRight=3;rotatable=0;labelPosition=right;points=[];portConstraint=eastwest;strokeColor=#464F55;fontColor=#1A1A1A;rounded=1;labelBackgroundColor=none;" vertex="1" parent="ITooB4OtBBQmgaeU0dyb-12">
          <mxGeometry y="100" width="220" height="8" as="geometry" />
        </mxCell>
        <mxCell id="ITooB4OtBBQmgaeU0dyb-15" value="+ get_state()&amp;nbsp;" style="text;strokeColor=none;fillColor=none;align=left;verticalAlign=top;spacingLeft=4;spacingRight=4;overflow=hidden;rotatable=0;points=[[0,0.5],[1,0.5]];portConstraint=eastwest;whiteSpace=wrap;html=1;fontColor=#464F55;rounded=1;labelBackgroundColor=none;" vertex="1" parent="ITooB4OtBBQmgaeU0dyb-12">
          <mxGeometry y="108" width="220" height="62" as="geometry" />
        </mxCell>
        <mxCell id="ITooB4OtBBQmgaeU0dyb-16" style="edgeStyle=orthogonalEdgeStyle;rounded=0;orthogonalLoop=1;jettySize=auto;html=1;endArrow=diamond;endFill=0;startArrow=open;startFill=0;endSize=10;startSize=10;strokeColor=#464F55;entryX=0.993;entryY=0.225;entryDx=0;entryDy=0;entryPerimeter=0;" edge="1" parent="WIyWlLk6GJQsqaUBKTNV-1" source="ITooB4OtBBQmgaeU0dyb-13" target="ITooB4OtBBQmgaeU0dyb-1">
          <mxGeometry relative="1" as="geometry">
            <mxPoint x="989" y="441" as="targetPoint" />
          </mxGeometry>
        </mxCell>
      </root>
    </mxGraphModel>
  </diagram>
</mxfile>
